Coordinates
version=1
nRows=6
nColumns=63
inDegrees=yes

Units are S.I. units (second, meters, Newtons, ...)
If the header above contains a line with 'inDegrees', this indicates whether rotational values are in degrees (yes) or radians (no).

endheader
time	pelvis_tilt	pelvis_list	pelvis_rotation	pelvis_tx	pelvis_ty	pelvis_tz	hip_flexion_r	hip_adduction_r	hip_rotation_r	knee_angle_r	knee_angle_r_beta	ankle_angle_r	subtalar_angle_r	mtp_angle_r	hip_flexion_l	hip_adduction_l	hip_rotation_l	knee_angle_l	knee_angle_l_beta	ankle_angle_l	subtalar_angle_l	mtp_angle_l	L5_S1_Flex_Ext	L5_S1_Lat_Bending	L5_S1_axial_rotation	L4_L5_Flex_Ext	L4_L5_Lat_Bending	L4_L5_axial_rotation	L3_L4_Flex_Ext	L3_L4_Lat_Bending	L3_L4_axial_rotation	L2_L3_Flex_Ext	L2_L3_Lat_Bending	L2_L3_axial_rotation	L1_L2_Flex_Ext	L1_L2_Lat_Bending	L1_L2_axial_rotation	L1_T12_Flex_Ext	L1_T12_Lat_Bending	L1_T12_axial_rotation	Abs_r3	Abs_r2	Abs_r1	Abs_t1	Abs_t2	neck_flexion	neck_bending	neck_rotation	arm_flex_r	arm_add_r	arm_rot_r	elbow_flex_r	pro_sup_r	wrist_flex_r	wrist_dev_r	arm_flex_l	arm_add_l	arm_rot_l	elbow_flex_l	pro_sup_l	wrist_flex_l	wrist_dev_l
      6.93103448	      1.77486243	      1.35082440	     88.85151347	      0.26784428	      0.99443107	      0.36811919	     -4.90878926	      2.91057400	     11.54655899	      2.70674604	      0.04724163	     30.91091913	    -17.71530671	      0.00000000	     -5.89017139	     -2.62471948	     20.98191551	      0.26111150	      0.00455726	     34.94165916	    -13.83734900	      0.00000000	      0.16761440	      0.36816577	     -0.81806798	      0.31127671	      0.48966048	     -0.86919722	      0.27537371	      0.89515826	     -0.86919722	      0.19156650	      0.89515826	     -0.71580948	      0.15564674	      0.75076365	     -0.66468023	      0.09577487	      0.57028878	     -0.61355098	      1.19725293	      4.16476487	     -4.54984866	      0.00000000	      0.00000000	     23.03752927	      1.08497952	     -1.44288335	     13.97942341	    -10.21944348	     79.77506334	     36.98282261	      2.15729394	      1.85453283	      6.48005702	     13.98000072	     -3.00929392	     71.19965971	     32.49416561	     53.45287436	      0.53225698	     -6.77789869
      6.94827586	      1.99238066	      1.23406735	     88.89352939	      0.26745883	      0.99387838	      0.36861904	     -4.57857010	      3.15503205	     11.36857185	      3.06420360	      0.05348044	     31.02223905	    -17.72083935	      0.00000000	     -5.78227014	     -2.85184851	     21.01657720	      0.26950933	      0.00470383	     34.83563367	    -13.93370965	      0.00000000	      0.18128934	      0.40250241	     -0.83507768	      0.33667244	      0.53532821	     -0.88727003	      0.29784026	      0.97864436	     -0.88727003	      0.20719559	      0.97864436	     -0.73069297	      0.16834528	      0.82078291	     -0.67850061	      0.10358873	      0.62347623	     -0.62630826	      1.29493165	      4.55318776	     -4.64445152	      0.00000000	      0.00000000	     23.14483984	      0.69481498	     -1.58259691	     14.03488884	    -10.38917114	     78.81449872	     37.10186874	      1.99844673	      1.72079925	      6.03870568	     14.13824112	     -2.76709614	     70.37123468	     32.46590101	     52.93122952	     -0.01212035	     -6.51873323
      6.96551724	      2.00401910	      1.20639247	     88.90570121	      0.26740326	      0.99347921	      0.36871877	     -4.52764387	      3.15930929	     11.37056653	      3.05463436	      0.05331343	     31.06186068	    -17.72077891	      0.00000000	     -5.82314132	     -2.87509317	     20.99147969	      0.28763507	      0.00502018	     34.80316966	    -13.95375628	      0.00000000	      0.19620738	      0.40545299	     -0.83719722	      0.36437673	      0.53925248	     -0.88952204	      0.32234911	      0.98581841	     -0.88952204	      0.22424542	      0.98581841	     -0.73254756	      0.18219818	      0.82679975	     -0.68022274	      0.11211290	      0.62804669	     -0.62789791	      1.40148971	      4.58656537	     -4.65623975	      0.00000000	      0.00000000	     23.10413016	      0.68137881	     -1.59892767	     14.20899092	    -10.40968044	     78.71367573	     37.10067497	      1.98585576	      1.71338779	      6.02104760	     14.28921402	     -2.76303797	     70.30703248	     32.46834436	     52.92361656	     -0.03744557	     -6.51371903
      6.98275862	      2.35485957	      1.19473299	     88.57708906	      0.26771063	      0.99342412	      0.36906155	     -4.23277565	      3.53774348	     11.40394925	      3.60442400	      0.06290907	     31.37052545	    -17.56560715	      0.00000000	     -5.93034040	     -3.22303646	     20.78112097	      0.29777780	      0.00519720	     34.37915467	    -14.44508234	      0.00000000	      0.19885491	      0.45298727	     -0.78445940	      0.36929346	      0.60247307	     -0.83348811	      0.32669874	      1.10139326	     -0.83348811	      0.22727128	      1.10139326	     -0.68640197	      0.18465667	      0.92373165	     -0.63737326	      0.11362570	      0.70167729	     -0.58834455	      1.42040075	      5.12428264	     -4.36292783	      0.00000000	      0.00000000	     22.80905456	      0.11312184	     -2.03389109	     14.04696165	    -10.69481056	     77.96892531	     37.43914572	      1.83161555	      1.51265461	      6.10441677	     14.24512017	     -2.54569962	     70.10673499	     32.45688846	     53.08647231	     -0.42892748	     -6.44281958
      7.00000000	      2.38567956	      1.17445591	     88.28529882	      0.26812715	      0.99354773	      0.36904626	     -4.13690165	      3.55504932	     11.55854418	      3.72207924	      0.06496254	     31.64909130	    -17.40788909	      0.00000000	     -6.00452186	     -3.23181272	     20.72469936	      0.30916020	      0.00539586	     34.12022569	    -14.80309811	      0.00000000	      0.21113950	      0.45706673	     -0.73238162	      0.39210716	      0.60789874	     -0.77815547	      0.34688108	      1.11131204	     -0.77815547	      0.24131133	      1.11131204	     -0.64083392	      0.19606414	      0.93205047	     -0.59506007	      0.12064511	      0.70799636	     -0.54928621	      1.50814832	      5.17043021	     -4.07328685	      0.00000000	      0.00000000	     22.62287788	     -0.12806173	     -2.45538303	     13.84658012	    -10.86025012	     77.92354391	     37.75993481	      1.82896739	      1.45034944	      6.47834117	     14.16290590	     -2.69181632	     70.53153725	     32.72358547	     53.53467911	     -0.19920199	     -6.69904302
      7.01724138	      2.35941857	      1.22346005	     87.85276774	      0.26880509	      0.99411030	      0.36896487	     -4.10803835	      3.50710015	     11.92117006	      3.84814267	      0.06716276	     31.84754648	    -17.39933179	      0.00000000	     -6.13827555	     -3.16350214	     20.63998814	      0.31575199	      0.00551091	     33.84962547	    -15.18273832	      0.00000000	      0.21148391	      0.45082152	     -0.65705987	      0.39274678	      0.59959263	     -0.69812611	      0.34744692	      1.09612745	     -0.69812611	      0.24170497	      1.09612745	     -0.57492739	      0.19638396	      0.91931525	     -0.53386114	      0.12084191	      0.69832254	     -0.49279490	      1.51060845	      5.09978323	     -3.65436987	      0.00000000	      0.00000000	     22.37049620	     -0.43354862	     -3.21366162	     13.67128900	    -10.97808662	     78.58707569	     38.03883840	      1.87363716	      1.61067296	      6.58686600	     14.29750945	     -2.95429481	     72.15557145	     32.88185559	     53.06443840	      0.33001311	     -7.53633560
